<?xml version="1.0" standalone="no"?>
<!DOCTYPE svg PUBLIC "-//W3C//DTD SVG 20010904//EN"
 "http://www.w3.org/TR/2001/REC-SVG-20010904/DTD/svg10.dtd">
<svg version="1.0" xmlns="http://www.w3.org/2000/svg"
 width="700.000000pt" height="700.000000pt" viewBox="0 0 700.000000 700.000000"
 preserveAspectRatio="xMidYMid meet">
<metadata>
Created by potrace 1.14, written by Peter Selinger 2001-2017
</metadata>
<g transform="translate(0.000000,700.000000) scale(0.100000,-0.100000)"
fill="#000000" stroke="none">
<path d="M3280 6993 c-460 -26 -945 -155 -1358 -362 -351 -176 -627 -376 -908
-655 -530 -530 -861 -1172 -986 -1912 -22 -131 -23 -165 -23 -564 0 -399 1
-433 23 -564 139 -827 558 -1567 1189 -2101 536 -453 1168 -727 1873 -811 176
-22 582 -24 745 -6 737 85 1388 365 1928 830 129 111 372 364 471 492 358 461
586 969 690 1540 42 231 51 341 51 620 0 340 -27 560 -106 874 -257 1017 -990
1886 -1957 2319 -506 226 -1077 331 -1632 300z m2068 -1318 c34 -8 81 -24 104
-36 58 -30 143 -113 178 -174 63 -110 60 -6 60 -1956 0 -1242 -3 -1793 -11
-1835 -16 -89 -55 -162 -123 -230 -68 -68 -141 -107 -230 -123 -84 -15 -3568
-15 -3652 0 -89 16 -162 55 -230 123 -68 68 -107 141 -123 230 -8 42 -11 593
-11 1835 0 1914 -2 1840 51 1943 30 58 113 143 174 178 107 61 3 58 1960 59
1548 1 1799 -1 1853 -14z"/>
<path d="M1750 5030 l0 -220 220 0 220 0 0 220 0 220 -220 0 -220 0 0 -220z"/>
<path d="M2620 4485 l0 -765 880 0 880 0 0 765 0 765 -880 0 -880 0 0 -765z"/>
<path d="M4810 5030 l0 -220 220 0 220 0 0 220 0 220 -220 0 -220 0 0 -220z"/>
<path d="M1750 4270 l0 -220 220 0 220 0 -2 218 -3 217 -217 3 -218 2 0 -220z"/>
<path d="M4817 4483 c-4 -3 -7 -102 -7 -220 l0 -213 220 0 220 0 0 220 0 220
-213 0 c-118 0 -217 -3 -220 -7z"/>
<path d="M1750 3500 l0 -220 220 0 220 0 0 220 0 220 -220 0 -220 0 0 -220z"/>
<path d="M4810 3500 l0 -220 220 0 220 0 0 220 0 220 -220 0 -220 0 0 -220z"/>
<path d="M2620 2515 l0 -765 880 0 880 0 0 765 0 765 -880 0 -880 0 0 -765z"/>
<path d="M1750 2735 l0 -215 220 0 220 0 0 215 0 215 -220 0 -220 0 0 -215z"/>
<path d="M4810 2735 l0 -215 220 0 220 0 0 215 0 215 -220 0 -220 0 0 -215z"/>
<path d="M1750 1970 l0 -220 220 0 220 0 0 220 0 220 -220 0 -220 0 0 -220z"/>
<path d="M4810 1970 l0 -220 220 0 220 0 0 220 0 220 -220 0 -220 0 0 -220z"/>
</g>
</svg>
