<svg width="264" height="73" viewBox="0 0 264 73" fill="none" xmlns="http://www.w3.org/2000/svg">
<path d="M66.6 0H7.4C3.31335 0 0 3.26857 0 7.3V65.7C0 69.7314 3.31335 73 7.4 73H66.6C70.6866 73 74 69.7314 74 65.7V7.3C74 3.26857 70.6866 0 66.6 0ZM14.8 65.7H7.4V58.4H14.8V65.7ZM14.8 52.925H7.4V45.625H14.8V52.925ZM14.8 40.15H7.4V32.85H14.8V40.15ZM14.8 27.375H7.4V20.075H14.8V27.375ZM14.8 14.6H7.4V7.3H14.8V14.6ZM51.8 65.7H22.2V40.15H51.8V65.7ZM51.8 32.85H22.2V7.3H51.8V32.85ZM66.6 65.7H59.2V58.4H66.6V65.7ZM66.6 52.925H59.2V45.625H66.6V52.925ZM66.6 40.15H59.2V32.85H66.6V40.15ZM66.6 27.375H59.2V20.075H66.6V27.375ZM66.6 14.6H59.2V7.3H66.6V14.6Z" fill="white"/>
<path d="M117.809 51V16.4414L117.492 18.5859L105.785 51H103.395L91.582 18.5859L91.3008 16.4414V51H86.7656V0.585938H89.1211L104.414 41.9297L104.555 43.793L104.695 41.9297L119.953 0.585938H122.344V51H117.809Z" fill="white"/>
<path d="M155.777 41.1211C155.777 42.5742 155.496 43.9453 154.934 45.2344C154.395 46.5234 153.645 47.6484 152.684 48.6094C151.723 49.5703 150.598 50.332 149.309 50.8945C148.02 51.4336 146.648 51.7031 145.195 51.7031H142.312C140.859 51.7031 139.488 51.4336 138.199 50.8945C136.91 50.332 135.785 49.5703 134.824 48.6094C133.863 47.6484 133.102 46.5234 132.539 45.2344C132 43.9453 131.73 42.5742 131.73 41.1211V24.8789C131.73 23.4258 132 22.0547 132.539 20.7656C133.102 19.4766 133.863 18.3516 134.824 17.3906C135.785 16.4297 136.91 15.6797 138.199 15.1406C139.488 14.5781 140.859 14.2969 142.312 14.2969H145.195C146.648 14.2969 148.02 14.5781 149.309 15.1406C150.598 15.6797 151.723 16.4297 152.684 17.3906C153.645 18.3516 154.395 19.4766 154.934 20.7656C155.496 22.0547 155.777 23.4258 155.777 24.8789V41.1211ZM151.453 24.6328C151.453 23.7656 151.289 22.957 150.961 22.207C150.633 21.4336 150.188 20.7656 149.625 20.2031C149.062 19.6406 148.395 19.1953 147.621 18.8672C146.871 18.5391 146.062 18.375 145.195 18.375H142.312C141.445 18.375 140.625 18.5391 139.852 18.8672C139.102 19.1953 138.445 19.6406 137.883 20.2031C137.32 20.7656 136.875 21.4336 136.547 22.207C136.219 22.957 136.055 23.7656 136.055 24.6328V41.3672C136.055 42.2344 136.219 43.0547 136.547 43.8281C136.875 44.5781 137.32 45.2344 137.883 45.7969C138.445 46.3594 139.102 46.8047 139.852 47.1328C140.625 47.4609 141.445 47.625 142.312 47.625H145.195C146.062 47.625 146.871 47.4609 147.621 47.1328C148.395 46.8047 149.062 46.3594 149.625 45.7969C150.188 45.2344 150.633 44.5781 150.961 43.8281C151.289 43.0547 151.453 42.2344 151.453 41.3672V24.6328Z" fill="white"/>
<path d="M175.711 51H173.566L160.805 15H165.129L174.516 42.2812L174.656 44.1445L174.797 42.2812L184.148 15H188.473L175.711 51Z" fill="white"/>
<path d="M194.625 6.35156V0.585938H199.652V6.35156H194.625ZM194.977 51V15H199.301V51H194.977Z" fill="white"/>
<path d="M233.473 41.1211C233.473 42.5742 233.191 43.9453 232.629 45.2344C232.09 46.5234 231.34 47.6484 230.379 48.6094C229.418 49.5703 228.293 50.332 227.004 50.8945C225.715 51.4336 224.344 51.7031 222.891 51.7031H220.008C218.555 51.7031 217.184 51.4336 215.895 50.8945C214.605 50.332 213.48 49.5703 212.52 48.6094C211.559 47.6484 210.797 46.5234 210.234 45.2344C209.695 43.9453 209.426 42.5742 209.426 41.1211V24.8789C209.426 23.4258 209.695 22.0547 210.234 20.7656C210.797 19.4766 211.559 18.3516 212.52 17.3906C213.48 16.4297 214.605 15.6797 215.895 15.1406C217.184 14.5781 218.555 14.2969 220.008 14.2969H222.891C224.344 14.2969 225.715 14.5781 227.004 15.1406C228.293 15.6797 229.418 16.4297 230.379 17.3906C231.34 18.3516 232.09 19.4766 232.629 20.7656C233.191 22.0547 233.473 23.4258 233.473 24.8789V33.3516H213.75V41.3672C213.75 42.2344 213.914 43.0547 214.242 43.8281C214.57 44.5781 215.016 45.2344 215.578 45.7969C216.141 46.3594 216.797 46.8047 217.547 47.1328C218.32 47.4609 219.141 47.625 220.008 47.625H222.891C223.758 47.625 224.566 47.4609 225.316 47.1328C226.09 46.8047 226.758 46.3594 227.32 45.7969C227.883 45.2344 228.328 44.5781 228.656 43.8281C228.984 43.0547 229.148 42.2344 229.148 41.3672V38.9766L233.473 39.6797V41.1211ZM229.148 24.6328C229.148 23.7656 228.984 22.957 228.656 22.207C228.328 21.4336 227.883 20.7656 227.32 20.2031C226.758 19.6406 226.09 19.1953 225.316 18.8672C224.566 18.5391 223.758 18.375 222.891 18.375H220.008C219.141 18.375 218.32 18.5391 217.547 18.8672C216.797 19.1953 216.141 19.6406 215.578 20.2031C215.016 20.7656 214.57 21.4336 214.242 22.207C213.914 22.957 213.75 23.7656 213.75 24.6328V29.9766H229.148V24.6328Z" fill="white"/>
<path d="M184.906 67.7969C184.906 67.2969 184.771 66.8021 184.5 66.3125C184.24 65.8229 183.755 65.3646 183.047 64.9375C182.349 64.5104 181.333 64.151 180 63.8594C179.052 63.651 178.214 63.4219 177.484 63.1719C176.766 62.9219 176.161 62.6198 175.672 62.2656C175.182 61.901 174.812 61.4688 174.562 60.9688C174.323 60.4688 174.203 59.8698 174.203 59.1719C174.203 58.5677 174.333 58 174.594 57.4688C174.854 56.9375 175.234 56.474 175.734 56.0781C176.245 55.6719 176.854 55.3542 177.562 55.125C178.271 54.8958 179.073 54.7812 179.969 54.7812C181.25 54.7812 182.344 54.9948 183.25 55.4219C184.167 55.8385 184.87 56.4167 185.359 57.1562C185.849 57.8854 186.094 58.7344 186.094 59.7031H184.844C184.844 59.0469 184.656 58.4323 184.281 57.8594C183.906 57.2865 183.354 56.8229 182.625 56.4688C181.906 56.1042 181.021 55.9219 179.969 55.9219C178.906 55.9219 178.042 56.0833 177.375 56.4062C176.708 56.7292 176.219 57.1406 175.906 57.6406C175.604 58.1302 175.453 58.6302 175.453 59.1406C175.453 59.5469 175.51 59.9271 175.625 60.2812C175.75 60.625 175.984 60.9427 176.328 61.2344C176.672 61.526 177.167 61.8073 177.812 62.0781C178.458 62.3385 179.297 62.5833 180.328 62.8125C181.682 63.1146 182.786 63.4844 183.641 63.9219C184.495 64.349 185.125 64.875 185.531 65.5C185.938 66.1146 186.141 66.8698 186.141 67.7656C186.141 68.4323 186 69.0469 185.719 69.6094C185.438 70.1615 185.031 70.6406 184.5 71.0469C183.979 71.4531 183.344 71.7656 182.594 71.9844C181.844 72.2031 181.01 72.3125 180.094 72.3125C178.708 72.3125 177.531 72.0938 176.562 71.6562C175.604 71.2083 174.875 70.6198 174.375 69.8906C173.885 69.1615 173.641 68.375 173.641 67.5312H174.891C174.964 68.4583 175.266 69.1875 175.797 69.7188C176.339 70.25 176.995 70.625 177.766 70.8438C178.547 71.0625 179.323 71.1719 180.094 71.1719C181.146 71.1719 182.026 71.0104 182.734 70.6875C183.453 70.3542 183.995 69.9323 184.359 69.4219C184.724 68.901 184.906 68.3594 184.906 67.7969Z" fill="white"/>
<path d="M196.891 72.3125C195.828 72.3125 194.844 72.1094 193.938 71.7031C193.031 71.2865 192.24 70.7083 191.562 69.9688C190.885 69.2188 190.354 68.3333 189.969 67.3125C189.594 66.2917 189.406 65.1719 189.406 63.9531V63.2656C189.406 62.0052 189.594 60.8594 189.969 59.8281C190.354 58.7865 190.875 57.8906 191.531 57.1406C192.188 56.3802 192.943 55.7969 193.797 55.3906C194.661 54.9844 195.583 54.7812 196.562 54.7812C197.552 54.7812 198.448 54.9635 199.25 55.3281C200.052 55.6927 200.74 56.2031 201.312 56.8594C201.885 57.5156 202.323 58.2969 202.625 59.2031C202.927 60.1094 203.078 61.1094 203.078 62.2031V63.25H190.188V62.1094H201.844V61.9062C201.833 60.8438 201.615 59.8594 201.188 58.9531C200.771 58.0469 200.172 57.3177 199.391 56.7656C198.609 56.2031 197.667 55.9219 196.562 55.9219C195.677 55.9219 194.87 56.1094 194.141 56.4844C193.422 56.8594 192.802 57.3802 192.281 58.0469C191.76 58.7031 191.359 59.4792 191.078 60.375C190.797 61.2604 190.656 62.224 190.656 63.2656V63.9531C190.656 64.9531 190.812 65.8906 191.125 66.7656C191.438 67.6406 191.875 68.4115 192.438 69.0781C193 69.7344 193.661 70.25 194.422 70.625C195.182 71 196.016 71.1875 196.922 71.1875C197.901 71.1875 198.797 71.0156 199.609 70.6719C200.422 70.3281 201.161 69.724 201.828 68.8594L202.641 69.4688C202.266 70.0104 201.812 70.4948 201.281 70.9219C200.75 71.349 200.12 71.6875 199.391 71.9375C198.672 72.1875 197.839 72.3125 196.891 72.3125Z" fill="white"/>
<path d="M217.422 68.8906V60.1562C217.422 59.2708 217.234 58.5104 216.859 57.875C216.484 57.2396 215.938 56.7552 215.219 56.4219C214.5 56.0781 213.62 55.9062 212.578 55.9062C211.609 55.9062 210.74 56.0781 209.969 56.4219C209.208 56.7552 208.609 57.2135 208.172 57.7969C207.734 58.3802 207.516 59.0312 207.516 59.75L206.266 59.7344C206.266 59.0885 206.417 58.4688 206.719 57.875C207.031 57.2812 207.469 56.7552 208.031 56.2969C208.604 55.8281 209.276 55.4583 210.047 55.1875C210.828 54.9167 211.682 54.7812 212.609 54.7812C213.797 54.7812 214.844 54.9844 215.75 55.3906C216.667 55.7865 217.38 56.3854 217.891 57.1875C218.401 57.9896 218.656 58.9896 218.656 60.1875V68.5312C218.656 69.1354 218.698 69.7448 218.781 70.3594C218.865 70.974 218.979 71.4688 219.125 71.8438V72H217.766C217.651 71.6042 217.562 71.1198 217.5 70.5469C217.448 69.974 217.422 69.4219 217.422 68.8906ZM217.828 62.4062L217.859 63.4844H213.734C212.693 63.4844 211.76 63.5833 210.938 63.7812C210.115 63.9792 209.417 64.2604 208.844 64.625C208.271 64.9896 207.833 65.4219 207.531 65.9219C207.229 66.4219 207.078 66.9844 207.078 67.6094C207.078 68.2552 207.25 68.849 207.594 69.3906C207.938 69.9323 208.422 70.3646 209.047 70.6875C209.672 71 210.396 71.1562 211.219 71.1562C212.344 71.1562 213.339 70.9635 214.203 70.5781C215.078 70.1823 215.812 69.651 216.406 68.9844C217 68.3073 217.432 67.526 217.703 66.6406L218.25 67.5469C218.073 68.099 217.797 68.6562 217.422 69.2188C217.047 69.7812 216.562 70.2969 215.969 70.7656C215.375 71.224 214.677 71.599 213.875 71.8906C213.073 72.1719 212.161 72.3125 211.141 72.3125C210.068 72.3125 209.13 72.1146 208.328 71.7188C207.536 71.3125 206.922 70.7604 206.484 70.0625C206.047 69.3542 205.828 68.5469 205.828 67.6406C205.828 66.8594 206.005 66.1458 206.359 65.5C206.714 64.8542 207.224 64.3021 207.891 63.8438C208.568 63.375 209.385 63.0208 210.344 62.7812C211.312 62.5312 212.401 62.4062 213.609 62.4062H217.828Z" fill="white"/>
<path d="M225.172 57.9688V72H223.938V55.0938H225.156L225.172 57.9688ZM231.609 54.9688L231.531 56.0938C231.344 56.0625 231.156 56.0365 230.969 56.0156C230.781 55.9948 230.583 55.9844 230.375 55.9844C229.479 55.9844 228.693 56.1615 228.016 56.5156C227.349 56.8698 226.786 57.3542 226.328 57.9688C225.88 58.5833 225.542 59.2969 225.312 60.1094C225.083 60.9219 224.964 61.7917 224.953 62.7188L224.344 62.8438C224.344 61.6875 224.464 60.6198 224.703 59.6406C224.953 58.6615 225.328 57.8073 225.828 57.0781C226.328 56.349 226.958 55.7865 227.719 55.3906C228.479 54.9844 229.375 54.7812 230.406 54.7812C230.656 54.7812 230.885 54.8021 231.094 54.8438C231.302 54.875 231.474 54.9167 231.609 54.9688Z" fill="white"/>
<path d="M240.312 71.1719C241.156 71.1719 241.953 71.0156 242.703 70.7031C243.464 70.3906 244.094 69.9167 244.594 69.2812C245.104 68.6354 245.391 67.8177 245.453 66.8281H246.672C246.62 67.9531 246.297 68.9271 245.703 69.75C245.109 70.5625 244.344 71.1927 243.406 71.6406C242.469 72.0885 241.438 72.3125 240.312 72.3125C239.188 72.3125 238.182 72.1042 237.297 71.6875C236.422 71.2708 235.688 70.6823 235.094 69.9219C234.5 69.1615 234.047 68.2708 233.734 67.25C233.432 66.2188 233.281 65.0938 233.281 63.875V63.2188C233.281 62 233.432 60.8802 233.734 59.8594C234.047 58.8281 234.5 57.9323 235.094 57.1719C235.688 56.4115 236.417 55.8229 237.281 55.4062C238.156 54.9896 239.156 54.7812 240.281 54.7812C241.417 54.7812 242.458 55.0156 243.406 55.4844C244.354 55.9427 245.12 56.6146 245.703 57.5C246.297 58.375 246.62 59.4479 246.672 60.7188H245.453C245.401 59.6771 245.135 58.8021 244.656 58.0938C244.177 57.3854 243.552 56.849 242.781 56.4844C242.01 56.1094 241.177 55.9219 240.281 55.9219C239.281 55.9219 238.417 56.1146 237.688 56.5C236.958 56.8854 236.359 57.4167 235.891 58.0938C235.422 58.7604 235.078 59.5365 234.859 60.4219C234.641 61.2969 234.531 62.2292 234.531 63.2188V63.875C234.531 64.875 234.641 65.8177 234.859 66.7031C235.078 67.5781 235.422 68.349 235.891 69.0156C236.359 69.6823 236.958 70.2083 237.688 70.5938C238.427 70.9792 239.302 71.1719 240.312 71.1719Z" fill="white"/>
<path d="M251.953 48V72H250.719V48H251.953ZM251.719 62.25L251.109 61.5312C251.203 60.6354 251.422 59.7812 251.766 58.9688C252.12 58.1562 252.583 57.4375 253.156 56.8125C253.74 56.1875 254.417 55.6927 255.188 55.3281C255.969 54.9635 256.828 54.7812 257.766 54.7812C258.609 54.7812 259.365 54.901 260.031 55.1406C260.698 55.3698 261.26 55.7344 261.719 56.2344C262.188 56.7344 262.542 57.3802 262.781 58.1719C263.021 58.9531 263.141 59.9062 263.141 61.0312V72H261.906V61.0312C261.906 59.6979 261.724 58.6667 261.359 57.9375C260.995 57.1979 260.484 56.6771 259.828 56.375C259.182 56.0729 258.427 55.9219 257.562 55.9219C256.562 55.9219 255.698 56.1458 254.969 56.5938C254.25 57.0312 253.656 57.5885 253.188 58.2656C252.719 58.9323 252.359 59.625 252.109 60.3438C251.87 61.0625 251.74 61.6979 251.719 62.25Z" fill="white"/>
</svg>
